<svg width="30" height="30" viewBox="0 0 30 30" fill="none" xmlns="http://www.w3.org/2000/svg">
<path fill-rule="evenodd" clip-rule="evenodd" d="M20.7351 4.54788C21.5544 4.36438 22.4031 4.35448 23.2263 4.51956C24.0496 4.68472 24.8292 5.02152 25.5144 5.50687C26.1997 5.9923 26.7759 6.61597 27.2048 7.33792C27.6338 8.05987 27.906 8.86433 28.0046 9.69827C28.0152 9.74677 28.0329 9.7937 28.0554 9.83792L28.0447 10.9082C27.9547 11.3181 27.8951 11.7283 27.7752 12.1182C27.5225 12.8652 27.1582 13.5698 26.6951 14.208C25.1751 16.5679 23.445 18.7777 21.6951 20.9776C20.5651 22.3976 19.4046 23.8078 18.2546 25.2178C18.1059 25.4179 17.9015 25.5697 17.6668 25.6534C17.4319 25.737 17.1771 25.7486 16.9353 25.6875C16.6482 25.6195 16.3924 25.4561 16.2107 25.2237C16.029 24.9911 15.932 24.7033 15.9353 24.4082C15.9353 21.0482 15.835 17.6774 15.865 14.3174C15.865 12.6876 16.0351 11.0476 16.1951 9.42777C16.3596 8.24681 16.8839 7.14549 17.6961 6.27249C18.5082 5.39948 19.5691 4.79712 20.7351 4.54788ZM10.5515 17.8994C11.1236 17.7001 11.7341 17.6334 12.3357 17.7041C12.9372 17.7749 13.5151 17.9811 14.0252 18.3076C14.0903 18.3438 14.144 18.3984 14.1795 18.4639C14.2059 18.513 14.2215 18.5669 14.2254 18.6221V21.5782H14.1853C14.1853 22.5179 14.135 23.4577 14.115 24.3975C14.1178 24.6723 14.0341 24.9414 13.8757 25.166C13.7173 25.3907 13.492 25.5598 13.2322 25.6494C12.9724 25.739 12.6906 25.7452 12.4275 25.666C12.1643 25.5868 11.9326 25.4262 11.7654 25.208C10.5554 23.728 9.36504 22.2076 8.15504 20.7676C8.10655 20.7166 8.07372 20.6523 8.06129 20.583C8.04894 20.5139 8.05706 20.4426 8.08473 20.378C8.28142 19.805 8.60562 19.2839 9.03297 18.8545C9.46022 18.4253 9.97965 18.0988 10.5515 17.8994ZM10.3347 10.8877C11.6566 10.9115 12.932 11.3801 13.9548 12.2178C14.0013 12.2498 14.0408 12.2916 14.0701 12.3399C14.0993 12.3881 14.1178 12.4421 14.1248 12.4981C14.1248 13.828 14.1954 15.1581 14.2254 16.4981C14.2215 16.535 14.2142 16.5715 14.2048 16.6075C12.8969 16.0022 11.4053 15.9268 10.0427 16.3965C8.68012 16.8663 7.55239 17.8452 6.89527 19.128C6.84187 19.071 6.79127 19.0111 6.74488 18.9483C5.98488 17.9483 5.23461 16.9477 4.46461 15.8877C4.41929 15.829 4.38892 15.7597 4.37672 15.6866C4.36453 15.6133 4.37137 15.5381 4.39527 15.4678C4.71773 14.1432 5.48162 12.9673 6.56129 12.1348C7.64087 11.3025 8.9718 10.8627 10.3347 10.8877ZM23.1736 6.82034C22.594 6.62788 21.9739 6.58938 21.3748 6.70804C20.6783 6.83711 20.0394 7.17972 19.5466 7.68851C19.0538 8.19746 18.7313 8.84749 18.6248 9.54788C18.4648 10.7978 18.3851 12.0178 18.2752 13.1778V14.4678C18.2716 14.9543 18.4214 15.4301 18.7039 15.8262C18.9863 16.2223 19.3873 16.5187 19.8484 16.6739C20.3095 16.829 20.8078 16.8352 21.2722 16.6905C21.7367 16.5457 22.144 16.2579 22.4353 15.8682C23.2153 14.7882 23.9649 13.6979 24.7048 12.5879C25.014 12.1659 25.2604 11.7011 25.4353 11.208C25.6148 10.6243 25.6396 10.0035 25.5076 9.40726C25.3755 8.81102 25.0905 8.25911 24.6814 7.8057C24.2724 7.35245 23.753 7.01279 23.1736 6.82034ZM21.3552 8.38773C21.7265 8.24482 22.1329 8.219 22.5193 8.31351C22.9057 8.40808 23.254 8.61885 23.5173 8.91702C23.7806 9.21515 23.9468 9.58645 23.9929 9.98148C24.039 10.3767 23.9629 10.7771 23.7752 11.128C22.9152 12.408 22.0546 13.688 21.1746 14.958C21.0884 15.0913 20.9588 15.1908 20.8074 15.2383C20.6558 15.2858 20.4914 15.2783 20.3445 15.2178C20.1938 15.1673 20.0639 15.0685 19.9754 14.9366C19.8868 14.8046 19.8449 14.6469 19.8552 14.4883C19.8452 14.0485 19.8552 13.6082 19.8552 13.2383C19.9552 12.0883 20.045 11.0078 20.155 9.92777C20.1845 9.58248 20.3131 9.25288 20.5261 8.97952C20.7391 8.70616 21.0276 8.5007 21.3552 8.38773ZM5.99195 4.60062C6.89672 4.28918 7.86344 4.19803 8.81031 4.33597C9.75704 4.47395 10.6571 4.83705 11.4353 5.39359C12.2135 5.95018 12.8474 6.6848 13.2839 7.53617C13.7205 8.38759 13.9474 9.33131 13.9451 10.2881C13.0095 9.75771 11.9705 9.43378 10.8992 9.3389C9.82806 9.24409 8.74921 9.38066 7.73512 9.73831C6.72321 10.0798 5.79648 10.6348 5.01832 11.3662C4.24021 12.0978 3.62868 12.9887 3.22535 13.9776C2.63463 13.2249 2.23152 12.3421 2.05152 11.4024C1.87154 10.4626 1.91938 9.49297 2.1902 8.57523C2.46102 7.65761 2.94787 6.81843 3.60914 6.12699C4.27045 5.43552 5.08727 4.91206 5.99195 4.60062Z" fill="#3B73B8"/>
</svg>
