<svg width="20" height="20" viewBox="0 0 20 20" fill="none" xmlns="http://www.w3.org/2000/svg">
<path d="M1.59717 1.59717H4.65272L6.69995 11.8256C6.7698 12.1773 6.96113 12.4932 7.24043 12.7181C7.51974 12.9429 7.86923 13.0624 8.22772 13.0555H15.6527C16.0112 13.0624 16.3607 12.9429 16.64 12.7181C16.9193 12.4932 17.1106 12.1773 17.1805 11.8256L18.4027 5.41661H5.41661M8.47217 16.8749C8.47217 17.2968 8.13016 17.6388 7.70828 17.6388C7.28639 17.6388 6.94439 17.2968 6.94439 16.8749C6.94439 16.4531 7.28639 16.1111 7.70828 16.1111C8.13016 16.1111 8.47217 16.4531 8.47217 16.8749ZM16.8749 16.8749C16.8749 17.2968 16.5329 17.6388 16.1111 17.6388C15.6892 17.6388 15.3472 17.2968 15.3472 16.8749C15.3472 16.4531 15.6892 16.1111 16.1111 16.1111C16.5329 16.1111 16.8749 16.4531 16.8749 16.8749Z" stroke-width="1.5" stroke-linecap="round" stroke-linejoin="round"/>
</svg>
