<svg width="24" height="24" viewBox="0 0 24 24" fill="none" xmlns="http://www.w3.org/2000/svg">
<path d="M10.4135 20.0199C10.4107 20.0199 10.4074 20.0199 10.4046 20.0199C10.2883 20.0176 10.1786 19.9679 10.0999 19.8826L2.06271 11.1432C1.9249 10.9932 1.91224 10.7672 2.03271 10.6027C2.15318 10.4387 2.37255 10.3824 2.55724 10.4687L9.91333 13.913C9.97521 13.9421 10.0483 13.928 10.0957 13.8788L21.3166 2.15115C21.4685 1.99225 21.7169 1.9749 21.8894 2.11178C22.0619 2.24865 22.1018 2.49428 21.9813 2.6785L10.8194 19.7776C10.8035 19.8024 10.7847 19.8249 10.7641 19.846L10.7149 19.8952C10.6347 19.9749 10.526 20.0199 10.4135 20.0199Z" fill="#FF4400"/>
</svg>
