<svg width="30" height="30" viewBox="0 0 30 30" fill="none" xmlns="http://www.w3.org/2000/svg">
<path fill-rule="evenodd" clip-rule="evenodd" d="M20.3621 24.9349C20.4821 25.6548 20.6325 26.3849 20.7625 27.1048C20.8112 27.3261 20.7833 27.5577 20.6834 27.7611C20.5834 27.9645 20.4167 28.1283 20.2117 28.2249C20.0112 28.3283 19.7817 28.3603 19.5603 28.3167C19.3389 28.2732 19.1384 28.1565 18.992 27.9847C18.282 27.2147 17.5816 26.4346 16.8816 25.6546L16.6219 25.3841L16.1316 27.0042C16.0716 27.2142 16.0124 27.4349 15.9324 27.6449C15.8782 27.861 15.7526 28.0527 15.5769 28.1898C15.4012 28.3268 15.1846 28.4017 14.9617 28.4017C14.7389 28.4016 14.5221 28.3268 14.3465 28.1898C14.171 28.0527 14.0462 27.8608 13.992 27.6449C13.802 26.865 13.5925 26.1247 13.3426 25.3548L11.4519 27.4447C11.2752 27.6599 11.0844 27.8631 10.8816 28.054C10.7339 28.2026 10.5434 28.3019 10.3367 28.3363C10.1302 28.3705 9.91798 28.3391 9.73026 28.2464C9.54243 28.1536 9.38814 28.0037 9.28983 27.8187C9.19153 27.6336 9.15413 27.4218 9.18241 27.2142C9.4424 25.4843 9.722 23.7641 9.99198 22.0443C9.98655 22.008 9.98657 21.9711 9.99198 21.9349C10.8871 22.1576 11.813 22.2317 12.7322 22.1546H17.3523C18.1985 22.2216 19.0501 22.1475 19.8719 21.9349C20.0418 22.9348 20.1921 23.935 20.3621 24.9349ZM15.0125 1.59798C15.3539 1.60384 15.6889 1.68978 15.991 1.84895C16.2932 2.00824 16.5539 2.23649 16.7517 2.51497C18.9417 5.20591 20.3035 8.47429 20.6717 11.9241C20.8417 13.5141 20.7823 15.1347 20.8123 16.7347C20.8474 17.1705 20.8474 17.6084 20.8123 18.0443C20.7569 18.6223 20.4846 19.1585 20.0506 19.5443C19.6166 19.9299 19.0529 20.137 18.4725 20.1243H11.5926C11.2679 20.1387 10.9431 20.0854 10.6404 19.9671C10.3379 19.8488 10.0635 19.6684 9.83475 19.4378C9.60596 19.2071 9.42811 18.9308 9.31229 18.6273C9.19648 18.3236 9.14485 17.9987 9.1619 17.6741C9.1619 15.9544 9.11203 14.2247 9.24198 12.515C9.4952 8.82694 10.8936 5.3094 13.242 2.45442C13.4493 2.18286 13.7177 1.96364 14.0252 1.81477C14.3326 1.66597 14.671 1.59214 15.0125 1.59798ZM21.7019 5.17415C22.2819 5.48415 22.8724 5.77415 23.4324 6.17415C23.8611 6.45372 24.2139 6.83515 24.4607 7.28352C24.7075 7.73182 24.8405 8.23375 24.8475 8.74544C24.8544 9.25723 24.7354 9.7632 24.5008 10.2181C24.2661 10.673 23.9228 11.0637 23.5017 11.3548C23.2719 11.5047 23.0218 11.6344 22.742 11.7943C22.4658 9.26448 21.7272 6.80682 20.5623 4.54427L21.7019 5.17415ZM9.42167 4.59407C8.30229 6.82807 7.56867 9.23562 7.25175 11.7142C6.69084 11.5192 6.19726 11.1682 5.8289 10.7025C5.46047 10.2366 5.23206 9.67518 5.17167 9.08431C5.10127 8.46178 5.22363 7.83232 5.52225 7.28157C5.82092 6.73078 6.28237 6.28487 6.84257 6.00423C7.69237 5.52435 8.56188 5.06395 9.42167 4.59407Z" fill="#3B73B8"/>
</svg>
