<svg width="30" height="30" viewBox="0 0 30 30" fill="none" xmlns="http://www.w3.org/2000/svg">
<path fill-rule="evenodd" clip-rule="evenodd" d="M15.0019 4.3086C15.681 4.30768 16.3533 4.44454 16.9775 4.71192C17.6017 4.97929 18.1649 5.37112 18.6328 5.86329C19.1006 6.35547 19.4628 6.93824 19.6982 7.5752C19.9335 8.21211 20.0372 8.89027 20.0019 9.56836C19.9205 10.316 19.7906 11.0575 19.6122 11.7881C18.8056 15.788 17.9887 19.7881 17.162 23.7881C17.0871 24.3173 16.8224 24.8011 16.4179 25.1504C16.0134 25.4997 15.4963 25.6913 14.9619 25.6885C14.4741 25.6866 14.0019 25.5165 13.6249 25.207C13.2478 24.8973 12.9882 24.4666 12.8915 23.9883C12.4316 21.755 11.9757 19.5183 11.5224 17.2783C11.0524 14.9883 10.5922 12.6982 10.1122 10.4082C9.96761 9.74493 9.9588 9.05908 10.0878 8.39258C10.2169 7.72608 10.4805 7.09264 10.8622 6.53125C11.244 5.96987 11.7361 5.49198 12.3085 5.12696C12.8809 4.76193 13.5223 4.51754 14.1923 4.40821C14.4622 4.34829 14.732 4.33858 15.0019 4.3086ZM23.6816 21.2578C24.1866 22.1716 24.3937 23.2209 24.2724 24.2578H19.7822L23.6816 21.2578ZM10.2519 24.2481H5.75189C5.63973 23.2114 5.84534 22.165 6.34174 21.2481L10.2519 24.2481ZM25.5917 12.0684C25.9892 12.332 26.3277 12.6751 26.5859 13.0762C26.844 13.4772 27.0164 13.9275 27.0917 14.3984C27.2183 15.03 27.1636 15.6845 26.9335 16.2861C26.7035 16.8878 26.3076 17.4118 25.7919 17.7979C23.8519 19.3279 21.8816 20.7979 19.9316 22.3379L19.8017 22.418C19.9617 22.118 20.1024 21.8884 20.2324 21.6484C21.8257 18.8818 23.4121 16.1112 24.9921 13.3379C25.212 12.938 25.3818 12.5082 25.5917 12.0684ZM4.45209 12.0684C5.27653 13.7841 6.19462 15.4533 7.20209 17.0684C8.12206 18.7283 9.08219 20.3784 10.0322 22.0684C10.0323 22.1583 10.1317 22.2584 10.2216 22.4082L10.0419 22.2979L4.23236 17.8379C3.86779 17.566 3.56077 17.2244 3.32904 16.833C3.09741 16.4418 2.94492 16.0089 2.88177 15.5586C2.88177 15.5586 2.88177 15.4782 2.88177 15.4482L2.84174 14.6279L2.93158 14.2188C3.15834 13.3404 3.69959 12.5751 4.45209 12.0684ZM8.97162 7.19825C8.62294 8.11894 8.50633 9.11142 8.63177 10.0879C8.73177 10.7079 8.86236 11.3187 8.98236 11.9287L10.662 20.1182C10.6585 20.178 10.6585 20.238 10.662 20.2979L10.5224 20.0586L6.22162 12.5586C5.94318 12.0933 5.77563 11.5698 5.73138 11.0293C5.68715 10.489 5.76777 9.94574 5.96674 9.44141C6.1658 8.93699 6.47841 8.48472 6.87982 8.12012C7.2812 7.7556 7.76105 7.48764 8.28217 7.3379C8.50197 7.27797 8.72186 7.24819 8.97162 7.19825ZM21.1025 7.21875C21.6302 7.26415 22.1401 7.43132 22.5917 7.70801C23.3925 8.19334 23.9684 8.97675 24.1933 9.88575C24.4181 10.7947 24.274 11.7559 23.7919 12.5586C22.7987 14.3118 21.7985 16.0549 20.7919 17.7881L19.5019 20.0479C19.4655 20.121 19.4101 20.1838 19.3417 20.2285C19.4817 19.5586 19.6219 18.8884 19.7519 18.2285C20.2852 15.6686 20.812 13.1016 21.332 10.5283C21.5212 9.52821 21.4554 8.49658 21.1415 7.52832L21.082 7.34864C21.072 7.30439 21.0797 7.25798 21.1025 7.21875Z" fill="#3B73B8"/>
</svg>
