<svg width="30" height="30" viewBox="0 0 30 30" fill="none" xmlns="http://www.w3.org/2000/svg">
<path fill-rule="evenodd" clip-rule="evenodd" d="M13.4216 5.02265C13.6976 4.97713 13.9801 4.99033 14.2507 5.06073C16.5919 5.60895 18.7288 6.81229 20.4109 8.53046C20.7309 8.87046 20.981 9.27104 21.281 9.63104C21.3805 9.76052 21.5161 9.85751 21.6706 9.91034C24.5584 10.713 27.1327 12.3775 29.0505 14.6808C29.3794 15.0477 29.5613 15.5231 29.5613 16.0158C29.5612 16.5085 29.3794 16.9839 29.0505 17.3508C26.9661 19.8973 24.0786 21.6604 20.8611 22.3508C20.6469 22.4036 20.4479 22.5064 20.281 22.6506C19.661 23.2005 19.0609 23.7608 18.4509 24.3107C18.1871 24.6075 17.8431 24.822 17.4607 24.9289C17.0782 25.0358 16.6732 25.0303 16.2937 24.9133C15.9142 24.7963 15.5759 24.5724 15.3201 24.2687C15.0644 23.9651 14.9012 23.594 14.8503 23.2004C14.8307 23.0007 14.7388 22.8152 14.5915 22.6789C14.4441 22.5425 14.2514 22.4651 14.0505 22.4611C11.4029 22.0093 8.926 20.8514 6.88061 19.1105L6.65112 18.9504L3.65112 21.7609C3.49116 21.9109 3.34059 22.0604 3.17065 22.2004C2.9133 22.4624 2.57219 22.6258 2.20678 22.6623C1.84139 22.6988 1.47476 22.6064 1.17065 22.4006C0.871369 22.2098 0.647032 21.9213 0.535883 21.5842C0.424848 21.2472 0.433351 20.8822 0.560297 20.551C1.53469 17.6301 1.53466 14.4718 0.560297 11.551C0.415583 11.2073 0.39966 10.8225 0.515375 10.468C0.631103 10.1135 0.871576 9.8124 1.19116 9.6203C1.50525 9.42832 1.87638 9.35149 2.24096 9.40253C2.60568 9.45362 2.94185 9.62951 3.19116 9.90058L6.59057 13.051L6.82104 12.8703C8.29007 11.6332 9.98956 10.6984 11.821 10.1203C12.0107 10.0503 12.1009 9.97053 12.1208 9.77069C12.168 9.12366 12.0829 8.47364 11.8708 7.86054C11.7589 7.48129 11.7243 7.08335 11.7703 6.69061C11.813 6.41424 11.9139 6.14948 12.0652 5.91425C12.2164 5.6792 12.4156 5.47888 12.6492 5.32538C12.8828 5.17183 13.1457 5.06816 13.4216 5.02265Z" fill="#3B73B8"/>
</svg>
