<svg width="30" height="30" viewBox="0 0 30 30" fill="none" xmlns="http://www.w3.org/2000/svg">
<path fill-rule="evenodd" clip-rule="evenodd" d="M5.34964 18.9993C5.3421 20.1429 5.72763 21.2544 6.44046 22.1487C7.07939 23.0863 8.05217 23.7444 9.16019 23.9885C8.64647 24.4848 8.10552 24.9525 7.54007 25.3889C7.12416 25.6592 6.64765 25.8216 6.15335 25.8626C5.65894 25.9035 5.16187 25.8215 4.70706 25.6233C4.25234 25.4252 3.85351 25.1177 3.54691 24.7278C3.24031 24.3378 3.0355 23.8776 2.95023 23.3889C2.9379 23.3473 2.92128 23.3069 2.90042 23.2688L2.91019 22.5989C3.32434 21.2754 4.09574 20.0918 5.13968 19.179L5.34964 18.9993ZM8.63968 15.7092C8.85755 16.8304 9.33252 17.886 10.0264 18.7932C10.7203 19.7004 11.6147 20.4349 12.6397 20.9387C12.4897 21.0987 12.3502 21.2693 12.2002 21.4192C11.7659 21.8869 11.2324 22.2518 10.6397 22.4885C10.3161 22.622 9.96471 22.675 9.61624 22.6419C9.26778 22.6087 8.93231 22.4912 8.63968 22.2991C8.03115 21.9525 7.53298 21.4408 7.20218 20.8235C6.87137 20.2061 6.72206 19.5076 6.77054 18.8088C6.83975 18.074 7.12825 17.3768 7.59964 16.8088C7.88954 16.419 8.22994 16.0691 8.54984 15.7092H8.63968ZM24.4698 4.12916H24.9004C25.0664 4.1207 25.2304 4.16999 25.3633 4.26979C25.4962 4.36963 25.5899 4.51326 25.628 4.67506C25.666 4.83682 25.6457 5.00692 25.5713 5.15553C25.4968 5.30421 25.3722 5.42213 25.2198 5.48854C24.3629 5.93254 23.5549 6.46536 22.8096 7.07838C21.3769 8.18416 20.2542 9.64172 19.5498 11.3088L19.4903 11.469C19.3411 11.7059 19.279 11.9874 19.3155 12.2649C19.352 12.5425 19.485 12.7983 19.6905 12.9885C20.3559 13.7832 20.7111 14.7921 20.6905 15.8284C20.7035 16.518 20.4888 17.1936 20.0801 17.7493C19.603 18.5332 18.927 19.1775 18.1211 19.6165C17.3152 20.0553 16.4076 20.2737 15.4903 20.2493C14.2207 20.1876 13.0097 19.6932 12.0596 18.8489C11.4974 18.4245 11.0249 17.8927 10.668 17.2854C10.3112 16.6781 10.0775 16.0065 9.9805 15.3088C9.97051 14.9891 9.96022 14.6493 9.95023 14.4592C10.0302 12.721 10.6485 11.0501 11.7198 9.67897C13.0877 7.87982 14.9058 6.47256 16.9903 5.59889C19.3482 4.57486 21.8997 4.07361 24.4698 4.12916ZM26.4698 6.63893C26.6239 6.68048 26.7609 6.77128 26.8584 6.89772C26.9559 7.02413 27.0087 7.1795 27.0098 7.33912C27.1916 8.56746 27.0965 9.82122 26.7315 11.0081C26.3664 12.1947 25.741 13.2848 24.9004 14.1985C24.1609 15.0465 23.3402 15.8207 22.4502 16.509L22.0801 16.7688C22.1938 15.9694 22.1467 15.1554 21.9424 14.3743C21.7381 13.5931 21.3802 12.8604 20.8897 12.219C20.8554 12.1691 20.837 12.1097 20.8369 12.0491C20.8369 11.9885 20.8555 11.9291 20.8897 11.8792L21.0996 11.3792C21.2651 10.9921 21.5448 10.6639 21.9004 10.4387C23.3145 9.46236 24.5862 8.29455 25.6797 6.969C25.762 6.83997 25.8823 6.73893 26.0235 6.67994C26.1646 6.62103 26.3203 6.60685 26.4698 6.63893Z" fill="#3B73B8"/>
</svg>
