<svg width="30" height="30" viewBox="0 0 30 30" fill="none" xmlns="http://www.w3.org/2000/svg">
<path fill-rule="evenodd" clip-rule="evenodd" d="M17.3866 3.11557C19.5386 3.51 21.5397 4.49295 23.1669 5.95541L23.287 6.08529C23.204 6.13396 23.1236 6.18754 23.0468 6.24545L20.3769 8.91537C20.2348 9.03423 20.1362 9.19679 20.0946 9.37729C20.0532 9.55769 20.0716 9.7465 20.1474 9.91537C20.1981 10.0732 20.2941 10.2126 20.4237 10.3158C20.5536 10.4189 20.7116 10.4816 20.8769 10.4954C21.0236 10.511 21.1721 10.4907 21.3095 10.4369C21.4469 10.383 21.5698 10.297 21.6669 10.1859C22.5269 9.31588 23.3868 8.45506 24.2568 7.59506C24.3167 7.52517 24.387 7.46572 24.4569 7.39584C25.7769 8.51592 27.3066 12.5455 27.1366 14.4954H23.2773C23.1417 14.4773 23.0035 14.4907 22.8739 14.5345C22.7444 14.5783 22.6269 14.6517 22.5302 14.7484C22.4335 14.845 22.3602 14.9627 22.3163 15.0921C22.2725 15.2217 22.2592 15.3599 22.2773 15.4954C22.2973 15.6777 22.3748 15.8488 22.4989 15.9837C22.623 16.1186 22.7869 16.2103 22.9667 16.2454C23.093 16.2557 23.2203 16.2557 23.3466 16.2454H27.0673C26.7938 18.7408 25.7445 21.0876 24.0673 22.9554L23.8671 22.7855L21.5868 20.5052C21.4601 20.3744 21.2954 20.2865 21.1161 20.2542C20.9367 20.2219 20.7514 20.247 20.5868 20.3255C20.4211 20.4037 20.2859 20.5342 20.2011 20.6966C20.1162 20.8591 20.0865 21.0452 20.1171 21.2259C20.1629 21.4446 20.2703 21.6455 20.4267 21.805C21.1266 22.535 21.8571 23.2452 22.5771 23.9652C22.6516 24.0376 22.7216 24.1149 22.787 24.1956C20.6477 25.9354 17.9741 26.8848 15.2167 26.8851V23.8851C15.234 23.7592 15.2244 23.6308 15.1874 23.5091C15.1504 23.3874 15.0874 23.275 15.0028 23.18C14.9182 23.085 14.8138 23.0092 14.6972 22.9583C14.5806 22.9075 14.4542 22.8825 14.3271 22.8851C14.2002 22.8822 14.0741 22.9074 13.9579 22.9583C13.8417 23.0093 13.7381 23.0857 13.6542 23.181C13.5705 23.2762 13.5083 23.3884 13.4726 23.5101C13.4369 23.6317 13.4283 23.7597 13.4472 23.8851V26.7152C11.7672 26.8952 8.28695 24.9654 6.95695 23.1654C7.40694 22.7154 7.86754 22.2755 8.30753 21.8255C8.44865 21.6877 8.54016 21.5063 8.5673 21.3109C8.59436 21.1155 8.55518 20.9165 8.45695 20.7454C8.3621 20.5736 8.21049 20.4394 8.02824 20.3665C7.84604 20.2938 7.64406 20.286 7.45695 20.3451C7.28516 20.3991 7.12791 20.4919 6.99699 20.6156C6.64702 20.9455 6.30714 21.2956 5.94718 21.6156C5.59241 20.9416 5.3327 20.2214 5.17667 19.4759C4.98939 18.585 4.956 17.6683 5.07706 16.766C5.1055 16.6306 5.17175 16.5055 5.26749 16.4056C6.03571 15.5423 7.11411 15.0175 8.26749 14.9456C8.46701 14.9458 8.49688 15.0256 8.54679 15.1654C9.00424 16.6705 9.96509 17.9735 11.2675 18.8558C11.8493 19.2833 12.5182 19.5771 13.2265 19.7171C13.9351 19.8571 14.6661 19.8396 15.3671 19.6654C16.2787 19.4171 17.073 18.8543 17.6093 18.0765C18.1456 17.2986 18.389 16.3557 18.2968 15.4154C18.2556 14.6807 18.0313 13.9675 17.6435 13.3421C17.2556 12.7168 16.7169 12.1987 16.0771 11.8353C15.6024 11.5601 15.066 11.4093 14.5175 11.3958C14.3576 11.3958 14.3067 11.3257 14.2568 11.1859C13.7664 9.72604 13.781 8.14342 14.2978 6.69271C14.8146 5.24193 15.8043 4.00691 17.1073 3.18588C17.1893 3.13029 17.2881 3.10521 17.3866 3.11557ZM7.91691 6.21518C8.69964 7.04424 9.21575 8.08955 9.39738 9.21518C9.60837 10.5365 9.33442 11.8901 8.62687 13.0257C8.60065 13.0699 8.56462 13.1074 8.5214 13.1351C8.47799 13.1629 8.42814 13.1806 8.37687 13.1859C7.01687 13.2396 5.71111 13.7339 4.65714 14.5951H4.57706C3.64106 13.6877 3.04539 12.4861 2.89054 11.1917C2.73576 9.89707 3.03153 8.58833 3.72745 7.48568C4.64404 7.87839 5.44617 8.49771 6.05753 9.28549C6.33861 8.0918 6.98897 7.01695 7.91691 6.21518Z" fill="#3B73B8"/>
</svg>
